# Blender v2.79 (sub 0) OBJ File: 'BOden.blend'
# www.blender.org
o Cube
v 1.000000 -1.000000 -1.000000
v 1.000000 -1.000000 1.000000
v -1.000000 -1.000000 1.000000
v -1.000000 -1.000000 -1.000000
v 1.000000 1.000000 -0.999999
v 0.999999 1.000000 1.000001
v -1.000000 1.000000 1.000000
v -1.000000 1.000000 -1.000000
v 1.000000 -1.000000 -1.000000
v -1.000000 -1.000000 -1.000000
v 1.000000 1.000000 -0.999999
v 1.000000 1.000000 -0.999999
v -1.000000 1.000000 -1.000000
v -1.000000 1.000000 -1.000000
v 0.999999 1.000000 1.000001
v -1.000000 1.000000 1.000000
vt 0.065396 0.123103
vt 0.483987 0.864501
vt 0.068592 0.867697
vt 0.580123 0.421575
vt 0.024815 0.979251
vt 0.023967 0.423095
vt 0.043142 0.801204
vt 0.575685 0.260780
vt 0.575921 0.790458
vt 0.065385 0.100900
vt 0.480911 0.845381
vt 0.065510 0.845506
vt 0.061774 0.865327
vt 0.475570 0.119645
vt 0.477168 0.862181
vt -0.013783 0.041390
vt 0.389185 0.793134
vt -0.005353 0.790007
vt 0.480790 0.119906
vt 0.580971 0.977731
vt 0.042906 0.271526
vt 0.480786 0.100775
vt 0.058627 0.120733
vt 0.401550 0.051479
vn 0.0000 -1.0000 0.0000
vn 0.0000 1.0000 0.0000
vn 1.0000 -0.0000 0.0000
vn 0.0000 -0.0000 1.0000
vn -1.0000 -0.0000 -0.0000
vn 0.0000 0.0000 -1.0000
s off
f 2/1/1 10/2/1 9/3/1
f 14/4/2 6/5/2 12/6/2
f 11/7/3 2/8/3 9/9/3
f 15/10/4 3/11/4 2/12/4
f 3/13/5 13/14/5 10/15/5
f 1/16/6 8/17/6 5/18/6
f 2/1/1 3/19/1 10/2/1
f 14/4/2 7/20/2 6/5/2
f 11/7/3 15/21/3 2/8/3
f 15/10/4 16/22/4 3/11/4
f 3/13/5 16/23/5 13/14/5
f 1/16/6 4/24/6 8/17/6
